<?xml version="1.0" standalone="no"?>
 <!DOCTYPE svg PUBLIC "-//W3C//DTD SVG 1.1//EN" 
 "http://www.w3.org/Graphics/SVG/1.1/DTD/svg11.dtd"> 
<svg xmlns="http://www.w3.org/2000/svg" version="1.1" 
    width="8.18642cm" height="3.07086cm" viewBox="0 0 32230 12090 ">
<title>SVG Picture created as SRM-1C-SL-5VDC.svg date 2015/12/19 14:16:57 </title>
  <desc>Picture generated by Eeschema-SVG </desc>
<g style="fill:#000000; fill-opacity:1;stroke:#000000; stroke-opacity:1;
stroke-linecap:round; stroke-linejoin:round; "
 transform="translate(0 0) scale(1 1)">
</g>
<g style="fill:#000000; fill-opacity:0.0; 
stroke:#000000; stroke-width:60; stroke-opacity:1; 
stroke-linecap:round; stroke-linejoin:round;">
<rect x="9610" y="40" width="14000" height="10000" rx="0" />
<path d="M7610 2040
L9610 2040
" />
<path d="M5140 2220
L5120 2240
L5050 2270
L5000 2270
L4930 2240
L4880 2190
L4860 2150
L4840 2050
L4840 1980
L4860 1890
L4880 1840
L4930 1790
L5000 1770
L5050 1770
L5120 1790
L5140 1810
" />
<path d="M5450 1770
L5550 1770
L5600 1790
L5640 1840
L5670 1930
L5670 2100
L5640 2190
L5600 2240
L5550 2270
L5450 2270
L5410 2240
L5360 2190
L5340 2100
L5340 1930
L5360 1840
L5410 1790
L5450 1770
" />
<path d="M5880 2270
L5880 1770
" />
<path d="M6360 2270
L6120 2270
L6120 1770
" />
<path d="M6400 2310
L6780 2310
" />
<path d="M6880 2120
L7110 2120
" />
<path d="M6830 2270
L6990 1770
L7160 2270
" />
<path d="M7610 5040
L9610 5040
" />
<path d="M5070 5220
L5050 5240
L4980 5270
L4930 5270
L4860 5240
L4810 5190
L4790 5150
L4770 5050
L4770 4980
L4790 4890
L4810 4840
L4860 4790
L4930 4770
L4980 4770
L5050 4790
L5070 4810
" />
<path d="M5380 4770
L5480 4770
L5530 4790
L5570 4840
L5600 4930
L5600 5100
L5570 5190
L5530 5240
L5480 5270
L5380 5270
L5340 5240
L5290 5190
L5270 5100
L5270 4930
L5290 4840
L5340 4790
L5380 4770
" />
<path d="M5810 5270
L5810 4770
" />
<path d="M6290 5270
L6050 5270
L6050 4770
" />
<path d="M6330 5310
L6710 5310
" />
<path d="M7000 5000
L7070 5030
L7090 5050
L7110 5100
L7110 5170
L7090 5220
L7070 5240
L7020 5270
L6830 5270
L6830 4770
L7000 4770
L7040 4790
L7070 4810
L7090 4860
L7090 4910
L7070 4960
L7040 4980
L7000 5000
L6830 5000
" />
<path d="M25610 1540
L23610 1540
" />
<path d="M26410 1720
L26390 1740
L26320 1770
L26270 1770
L26200 1740
L26150 1690
L26130 1650
L26110 1550
L26110 1480
L26130 1390
L26150 1340
L26200 1290
L26270 1270
L26320 1270
L26390 1290
L26410 1310
" />
<path d="M26720 1270
L26820 1270
L26870 1290
L26910 1340
L26940 1430
L26940 1600
L26910 1690
L26870 1740
L26820 1770
L26720 1770
L26680 1740
L26630 1690
L26610 1600
L26610 1430
L26630 1340
L26680 1290
L26720 1270
" />
<path d="M27150 1770
L27150 1270
L27430 1770
L27430 1270
" />
<path d="M27600 1270
L27880 1270
" />
<path d="M27740 1770
L27740 1270
" />
<path d="M28030 1620
L28260 1620
" />
<path d="M27980 1770
L28140 1270
L28310 1770
" />
<path d="M28760 1720
L28740 1740
L28670 1770
L28620 1770
L28550 1740
L28500 1690
L28480 1650
L28460 1550
L28460 1480
L28480 1390
L28500 1340
L28550 1290
L28620 1270
L28670 1270
L28740 1290
L28760 1310
" />
<path d="M28910 1270
L29190 1270
" />
<path d="M29050 1770
L29050 1270
" />
<path d="M29240 1810
L29620 1810
" />
<path d="M29740 1770
L29740 1270
L29930 1270
L29980 1290
L30000 1310
L30020 1360
L30020 1430
L30000 1480
L29980 1500
L29930 1530
L29740 1530
" />
<path d="M25610 4040
L23610 4040
" />
<path d="M26410 4220
L26390 4240
L26320 4270
L26270 4270
L26200 4240
L26150 4190
L26130 4150
L26110 4050
L26110 3980
L26130 3890
L26150 3840
L26200 3790
L26270 3770
L26320 3770
L26390 3790
L26410 3810
" />
<path d="M26720 3770
L26820 3770
L26870 3790
L26910 3840
L26940 3930
L26940 4100
L26910 4190
L26870 4240
L26820 4270
L26720 4270
L26680 4240
L26630 4190
L26610 4100
L26610 3930
L26630 3840
L26680 3790
L26720 3770
" />
<path d="M27150 4270
L27150 3770
L27430 4270
L27430 3770
" />
<path d="M27600 3770
L27880 3770
" />
<path d="M27740 4270
L27740 3770
" />
<path d="M28030 4120
L28260 4120
" />
<path d="M27980 4270
L28140 3770
L28310 4270
" />
<path d="M28760 4220
L28740 4240
L28670 4270
L28620 4270
L28550 4240
L28500 4190
L28480 4150
L28460 4050
L28460 3980
L28480 3890
L28500 3840
L28550 3790
L28620 3770
L28670 3770
L28740 3790
L28760 3810
" />
<path d="M28910 3770
L29190 3770
" />
<path d="M29050 4270
L29050 3770
" />
<path d="M29240 4310
L29620 4310
" />
<path d="M29740 4270
L29740 3770
L29930 3770
L29980 3790
L30000 3810
L30020 3860
L30020 3930
L30000 3980
L29980 4000
L29930 4030
L29740 4030
" />
<path d="M30220 4120
L30450 4120
" />
<path d="M30170 4270
L30330 3770
L30500 4270
" />
<path d="M25610 7040
L23610 7040
" />
<path d="M26410 7220
L26390 7240
L26320 7270
L26270 7270
L26200 7240
L26150 7190
L26130 7150
L26110 7050
L26110 6980
L26130 6890
L26150 6840
L26200 6790
L26270 6770
L26320 6770
L26390 6790
L26410 6810
" />
<path d="M26720 6770
L26820 6770
L26870 6790
L26910 6840
L26940 6930
L26940 7100
L26910 7190
L26870 7240
L26820 7270
L26720 7270
L26680 7240
L26630 7190
L26610 7100
L26610 6930
L26630 6840
L26680 6790
L26720 6770
" />
<path d="M27150 7270
L27150 6770
L27430 7270
L27430 6770
" />
<path d="M27600 6770
L27880 6770
" />
<path d="M27740 7270
L27740 6770
" />
<path d="M28030 7120
L28260 7120
" />
<path d="M27980 7270
L28140 6770
L28310 7270
" />
<path d="M28760 7220
L28740 7240
L28670 7270
L28620 7270
L28550 7240
L28500 7190
L28480 7150
L28460 7050
L28460 6980
L28480 6890
L28500 6840
L28550 6790
L28620 6770
L28670 6770
L28740 6790
L28760 6810
" />
<path d="M28910 6770
L29190 6770
" />
<path d="M29050 7270
L29050 6770
" />
<path d="M29240 7310
L29620 7310
" />
<path d="M29740 7270
L29740 6770
L29930 6770
L29980 6790
L30000 6810
L30020 6860
L30020 6930
L30000 6980
L29980 7000
L29930 7030
L29740 7030
" />
<path d="M30410 7000
L30480 7030
L30500 7050
L30520 7100
L30520 7170
L30500 7220
L30480 7240
L30430 7270
L30240 7270
L30240 6770
L30410 6770
L30450 6790
L30480 6810
L30500 6860
L30500 6910
L30480 6960
L30450 6980
L30410 7000
L30240 7000
" />
<path d="M15840 9280
L15930 9310
L16070 9310
L16130 9280
L16160 9250
L16190 9200
L16190 9140
L16160 9080
L16130 9050
L16070 9030
L15960 9000
L15900 8970
L15870 8940
L15840 8880
L15840 8830
L15870 8770
L15900 8740
L15960 8710
L16100 8710
L16190 8740
" />
<path d="M16390 8710
L16530 9310
L16640 8880
L16760 9310
L16900 8710
" />
<path d="M17220 9250
L17250 9280
L17220 9310
L17190 9280
L17220 9250
L17220 9310
" />
<path d="M17100 8740
L17160 8710
L17300 8710
L17360 8740
L17390 8800
L17390 8850
L17360 8910
L17330 8940
L17280 8970
L17250 9000
L17220 9050
L17220 9080
" />
<path d="M12430 9280
L12520 9310
L12660 9310
L12720 9280
L12750 9250
L12780 9200
L12780 9140
L12750 9080
L12720 9050
L12660 9030
L12550 9000
L12490 8970
L12460 8940
L12430 8880
L12430 8830
L12460 8770
L12490 8740
L12550 8710
L12690 8710
L12780 8740
" />
<path d="M13380 9310
L13180 9030
" />
<path d="M13030 9310
L13030 8710
L13260 8710
L13320 8740
L13350 8770
L13380 8830
L13380 8910
L13350 8970
L13320 9000
L13260 9030
L13030 9030
" />
<path d="M13630 9310
L13630 8710
L13830 9140
L14030 8710
L14030 9310
" />
<path d="M14320 9080
L14780 9080
" />
<path d="M15380 9310
L15030 9310
" />
<path d="M15210 9310
L15210 8710
L15150 8800
L15090 8850
L15030 8880
" />
<path d="M15980 9250
L15950 9280
L15860 9310
L15800 9310
L15720 9280
L15660 9230
L15630 9170
L15600 9050
L15600 8970
L15630 8850
L15660 8800
L15720 8740
L15800 8710
L15860 8710
L15950 8740
L15980 8770
" />
<path d="M16230 9080
L16690 9080
" />
<path d="M16940 9280
L17030 9310
L17170 9310
L17230 9280
L17260 9250
L17290 9200
L17290 9140
L17260 9080
L17230 9050
L17170 9030
L17060 9000
L17000 8970
L16970 8940
L16940 8880
L16940 8830
L16970 8770
L17000 8740
L17060 8710
L17200 8710
L17290 8740
" />
<path d="M17830 9310
L17540 9310
L17540 8710
" />
<path d="M18030 9080
L18490 9080
" />
<path d="M19060 8710
L18770 8710
L18740 9000
L18770 8970
L18830 8940
L18970 8940
L19030 8970
L19060 9000
L19090 9050
L19090 9200
L19060 9250
L19030 9280
L18970 9310
L18830 9310
L18770 9280
L18740 9250
" />
<path d="M19260 8710
L19460 9310
L19660 8710
" />
<path d="M19850 9310
L19850 8710
L20000 8710
L20080 8740
L20140 8800
L20170 8850
L20200 8970
L20200 9050
L20170 9170
L20140 9230
L20080 9280
L20000 9310
L19850 9310
" />
<path d="M20800 9250
L20770 9280
L20680 9310
L20620 9310
L20540 9280
L20480 9230
L20450 9170
L20420 9050
L20420 8970
L20450 8850
L20480 8800
L20540 8740
L20620 8710
L20680 8710
L20770 8740
L20800 8770
" />
</g> 
</svg>
